<svg viewBox="891 471.0121 380 84.8092" width="5000" height="1115.9105263157894" xmlns="http://www.w3.org/2000/svg" xmlns:xlink="http://www.w3.org/1999/xlink" preserveAspectRatio="none"><defs></defs><style>.a6izo4zJpcolor {fill:#000000;fill-opacity:1;}.a6izo4zJpstrokeColor-str {stroke:#3F3F3F;stroke-opacity:1;}.aD6z1nYkhcolor {fill:#000000;fill-opacity:1;}.aD6z1nYkhstrokeColor-str {stroke:#3F3F3F;stroke-opacity:1;}.atBXipXk0bfillColor {fill:#000000;fill-opacity:1;}.atBXipXk0bstrokeColor-str {stroke:#3F3F3F;stroke-opacity:1;}</style><g opacity="1" transform="rotate(0 891 536.5152)">
<svg width="380" height="19.3061" x="891" y="536.5152" version="1.1" preserveAspectRatio="none" viewBox="1.8 -31 772.36 39.24">
  <g transform="matrix(1 0 0 1 0 0)" class="a6izo4zJpcolor"><path id="id-6izo4zJp39" d="M11-2.80Q13.08-2.80 15.04-4.24L15.04-4.24L16.76-1.48Q15.44-0.60 13.90-0.10Q12.36 0.40 10.92 0.40L10.92 0.40Q8.16 0.40 6.10-0.74Q4.04-1.88 2.92-3.88Q1.80-5.88 1.80-8.40L1.80-8.40Q1.80-10.84 3.02-12.86Q4.24-14.88 6.36-16.06Q8.48-17.24 11-17.24L11-17.24Q14.24-17.24 16.42-15.34Q18.60-13.44 19.40-10.04L19.40-10.04L6.28-5.44Q7-4.20 8.22-3.50Q9.44-2.80 11-2.80L11-2.80ZM10.72-14.28Q8.44-14.28 6.96-12.68Q5.48-11.08 5.48-8.60L5.48-8.60Q5.48-8 5.52-7.68L5.52-7.68L15.16-11.24Q14.56-12.60 13.46-13.44Q12.36-14.28 10.72-14.28L10.72-14.28Z M39.40 0L34.88 0L30.44-5.84L26.28 0L22.48 0L28.56-8.32L22.28-16.56L26.92-16.56L31.28-10.80L35-16.56L38.76-16.56L33-8.52L39.40 0Z M55.08-17.24Q57.40-17.24 59.28-16.12Q61.16-15 62.24-12.98Q63.32-10.96 63.32-8.32L63.32-8.32Q63.32-5.72 62.16-3.74Q61-1.76 58.96-0.68Q56.92 0.40 54.40 0.40L54.40 0.40Q52.60 0.40 50.96-0.38Q49.32-1.16 48.32-2.48L48.32-2.48L48.32 7.96L44.60 7.96L44.60-16.84L47.84-16.84L48.16-14.04Q49.44-15.48 51.22-16.36Q53-17.24 55.08-17.24L55.08-17.24ZM53.68-2.60Q55.24-2.60 56.58-3.34Q57.92-4.08 58.72-5.38Q59.52-6.68 59.52-8.28L59.52-8.28Q59.52-9.92 58.78-11.24Q58.04-12.56 56.76-13.32Q55.48-14.08 53.92-14.08L53.92-14.08Q51.80-14.08 50.30-12.90Q48.80-11.72 48.32-9.72L48.32-9.72L48.32-6.96Q48.64-5.04 50.14-3.82Q51.64-2.60 53.68-2.60L53.68-2.60Z M77.28-2.80Q79.36-2.80 81.32-4.24L81.32-4.24L83.04-1.48Q81.72-0.60 80.18-0.10Q78.64 0.40 77.20 0.40L77.20 0.40Q74.44 0.40 72.38-0.74Q70.32-1.88 69.20-3.88Q68.08-5.88 68.08-8.40L68.08-8.40Q68.08-10.84 69.30-12.86Q70.52-14.88 72.64-16.06Q74.76-17.24 77.28-17.24L77.28-17.24Q80.52-17.24 82.70-15.34Q84.88-13.44 85.68-10.04L85.68-10.04L72.56-5.44Q73.28-4.20 74.50-3.50Q75.72-2.80 77.28-2.80L77.28-2.80ZM77-14.28Q74.72-14.28 73.24-12.68Q71.76-11.08 71.76-8.60L71.76-8.60Q71.76-8 71.80-7.68L71.80-7.68L81.44-11.24Q80.84-12.60 79.74-13.44Q78.64-14.28 77-14.28L77-14.28Z M95.12-12.64Q95.76-14 96.94-15.04Q98.12-16.08 99.44-16.64Q100.76-17.20 101.76-17.24L101.76-17.24L101.60-13.52Q99.80-13.60 98.34-12.80Q96.88-12 96.06-10.58Q95.24-9.16 95.24-7.56L95.24-7.56L95.24 0L91.52 0L91.52-16.56L94.84-16.56L95.12-12.64Z M109.36-23.84L113.12-23.84L113.12-16.52L117.64-16.52L117.64-13.56L113.12-13.56L113.12 0L109.36 0L109.36-13.56L106.32-13.56L106.32-16.52L109.36-16.52L109.36-23.84Z M122.28-10.24L129.72-10.24L129.72-6.96L122.28-6.96L122.28-10.24Z M150.80-16.56L154.20-16.56L154.20 0.12Q154.20 2.40 153.04 4.24Q151.88 6.08 149.74 7.16Q147.60 8.24 144.72 8.24L144.72 8.24Q142.20 8.24 140.38 7.40Q138.56 6.56 136.72 4.92L136.72 4.92L138.92 2.36Q140.28 3.64 141.64 4.30Q143.00 4.96 144.64 4.96L144.64 4.96Q147.40 4.96 148.90 3.64Q150.40 2.32 150.44 0.08L150.44 0.08L150.48-3.04Q149.56-1.48 147.78-0.54Q146.00 0.40 143.68 0.40L143.68 0.40Q141.40 0.40 139.48-0.76Q137.56-1.92 136.42-3.92Q135.28-5.92 135.28-8.36L135.28-8.36Q135.28-10.88 136.46-12.90Q137.64-14.92 139.64-16.08Q141.64-17.24 143.92-17.24L143.92-17.24Q146.04-17.24 147.84-16.40Q149.64-15.56 150.52-14.24L150.52-14.24L150.80-16.56ZM144.76-2.68Q146.88-2.68 148.44-3.84Q150.00-5 150.48-6.88L150.48-6.88L150.48-10.16Q149.92-11.96 148.36-13.06Q146.80-14.16 144.76-14.16L144.76-14.16Q142.32-14.16 140.68-12.56Q139.04-10.96 139.04-8.48L139.04-8.48Q139.04-6.88 139.80-5.56Q140.56-4.24 141.88-3.46Q143.20-2.68 144.76-2.68L144.76-2.68Z M173.56-16.56L177.28-16.56L177.28 0L173.92 0L173.68-3.16Q172.84-1.48 171.08-0.42Q169.32 0.64 167.16 0.64L167.16 0.64Q164.88 0.64 163.42-0.74Q161.96-2.12 161.88-4.32L161.88-4.32L161.88-16.56L165.60-16.56L165.60-5.64Q165.68-4.24 166.42-3.42Q167.16-2.60 168.64-2.56L168.64-2.56Q170-2.56 171.12-3.38Q172.24-4.20 172.90-5.64Q173.56-7.08 173.56-8.84L173.56-8.84L173.56-16.56Z M184.96-16.56L188.68-16.56L188.68 0L184.96 0L184.96-16.56ZM184.68-22.52Q184.68-23.40 185.36-24Q186.04-24.60 186.92-24.60L186.92-24.60Q187.80-24.60 188.46-24Q189.12-23.40 189.12-22.52L189.12-22.52Q189.12-21.64 188.46-21.04Q187.80-20.44 186.92-20.44L186.92-20.44Q186.04-20.44 185.36-21.04Q184.68-21.64 184.68-22.52L184.68-22.52Z M209.92-31L213.64-31L213.64 0L209.88 0L209.88-2.60Q208.68-1.20 206.94-0.40Q205.20 0.40 203.12 0.40L203.12 0.40Q200.80 0.40 198.92-0.72Q197.04-1.84 195.98-3.86Q194.92-5.88 194.92-8.52L194.92-8.52Q194.92-11.20 196.04-13.18Q197.16-15.16 199.12-16.20Q201.08-17.24 203.56-17.24L203.56-17.24Q205.44-17.24 207.18-16.46Q208.92-15.68 209.92-14.32L209.92-14.32L209.92-31ZM204.28-2.80Q206.44-2.80 207.94-3.96Q209.44-5.12 209.88-7.08L209.88-7.08L209.88-10.20Q209.40-12 207.84-13.14Q206.28-14.28 204.28-14.28L204.28-14.28Q202.76-14.28 201.48-13.54Q200.20-12.80 199.44-11.50Q198.68-10.20 198.68-8.56L198.68-8.56Q198.68-6.96 199.44-5.64Q200.20-4.32 201.48-3.56Q202.76-2.80 204.28-2.80L204.28-2.80Z M229.04-2.80Q231.12-2.80 233.08-4.24L233.08-4.24L234.80-1.48Q233.48-0.60 231.94-0.10Q230.40 0.40 228.96 0.40L228.96 0.40Q226.20 0.40 224.14-0.74Q222.08-1.88 220.96-3.88Q219.84-5.88 219.84-8.40L219.84-8.40Q219.84-10.84 221.06-12.86Q222.28-14.88 224.40-16.06Q226.52-17.24 229.04-17.24L229.04-17.24Q232.28-17.24 234.46-15.34Q236.64-13.44 237.44-10.04L237.44-10.04L224.32-5.44Q225.04-4.20 226.26-3.50Q227.48-2.80 229.04-2.80L229.04-2.80ZM228.76-14.28Q226.48-14.28 225.00-12.68Q223.52-11.08 223.52-8.60L223.52-8.60Q223.52-8 223.56-7.68L223.56-7.68L233.20-11.24Q232.60-12.60 231.50-13.44Q230.40-14.28 228.76-14.28L228.76-14.28Z M256.84-31L260.56-31L260.56 0L256.80 0L256.80-2.60Q255.60-1.20 253.86-0.40Q252.12 0.40 250.04 0.40L250.04 0.40Q247.72 0.40 245.84-0.72Q243.96-1.84 242.90-3.86Q241.84-5.88 241.84-8.52L241.84-8.52Q241.84-11.20 242.96-13.18Q244.08-15.16 246.04-16.20Q248.00-17.24 250.48-17.24L250.48-17.24Q252.36-17.24 254.10-16.46Q255.84-15.68 256.84-14.32L256.84-14.32L256.84-31ZM251.20-2.80Q253.36-2.80 254.86-3.96Q256.36-5.12 256.80-7.08L256.80-7.08L256.80-10.20Q256.32-12 254.76-13.14Q253.20-14.28 251.20-14.28L251.20-14.28Q249.68-14.28 248.40-13.54Q247.12-12.80 246.36-11.50Q245.60-10.20 245.60-8.56L245.60-8.56Q245.60-6.96 246.36-5.64Q247.12-4.32 248.40-3.56Q249.68-2.80 251.20-2.80L251.20-2.80Z M271.60-3.52L269.28 2.08L268.12 4.88L265.08 4.88L266.12 2.08Q267.92-2.76 268.20-3.52L268.20-3.52L271.60-3.52Z M289.92-8.44Q289.92-10.88 291.10-12.90Q292.28-14.92 294.38-16.08Q296.48-17.24 299.12-17.24L299.12-17.24Q301.76-17.24 303.82-16.08Q305.88-14.92 307.02-12.92Q308.16-10.92 308.16-8.44L308.16-8.44Q308.16-5.96 307.02-3.94Q305.88-1.92 303.80-0.76Q301.72 0.40 299.04 0.40L299.04 0.40Q296.44 0.40 294.36-0.70Q292.28-1.80 291.10-3.80Q289.92-5.80 289.92-8.44L289.92-8.44ZM293.68-8.40Q293.68-6.84 294.38-5.52Q295.08-4.20 296.30-3.44Q297.52-2.68 299.00-2.68L299.00-2.68Q301.32-2.68 302.84-4.32Q304.36-5.96 304.36-8.40L304.36-8.40Q304.36-10.84 302.84-12.50Q301.32-14.16 299.00-14.16L299.00-14.16Q297.48-14.16 296.28-13.38Q295.08-12.60 294.38-11.28Q293.68-9.96 293.68-8.40L293.68-8.40Z M326.04-16.56L329.76-16.56L329.76 0L326.40 0L326.16-3.16Q325.32-1.48 323.56-0.42Q321.80 0.64 319.64 0.64L319.64 0.64Q317.36 0.64 315.90-0.74Q314.44-2.12 314.36-4.32L314.36-4.32L314.36-16.56L318.08-16.56L318.08-5.64Q318.16-4.24 318.90-3.42Q319.64-2.60 321.12-2.56L321.12-2.56Q322.48-2.56 323.60-3.38Q324.72-4.20 325.38-5.64Q326.04-7.08 326.04-8.84L326.04-8.84L326.04-16.56Z M339.04-23.84L342.80-23.84L342.80-16.52L347.32-16.52L347.32-13.56L342.80-13.56L342.80 0L339.04 0L339.04-13.56L336.00-13.56L336.00-16.52L339.04-16.52L339.04-23.84Z M366.48-1.56Q365.36-0.64 363.82-0.12Q362.28 0.40 360.68 0.40L360.68 0.40Q358.00 0.40 355.94-0.68Q353.88-1.76 352.74-3.74Q351.60-5.72 351.60-8.32L351.60-8.32Q351.60-10.88 352.80-12.86Q354.00-14.84 356.00-15.92Q358.00-17 360.32-17L360.32-17Q364.12-17 366.60-14.92L366.60-14.92L364.72-12.48Q363.92-13.08 362.88-13.50Q361.84-13.92 360.64-13.92L360.64-13.92Q359.16-13.92 357.94-13.18Q356.72-12.44 356.02-11.16Q355.32-9.88 355.32-8.32L355.32-8.32Q355.32-6.76 356.06-5.48Q356.80-4.20 358.08-3.44Q359.36-2.68 361.00-2.68L361.00-2.68Q363.04-2.68 364.56-3.88L364.56-3.88L366.48-1.56Z M371.04-8.44Q371.04-10.88 372.22-12.90Q373.40-14.92 375.50-16.08Q377.60-17.24 380.24-17.24L380.24-17.24Q382.88-17.24 384.94-16.08Q387.00-14.92 388.14-12.92Q389.28-10.92 389.28-8.44L389.28-8.44Q389.28-5.96 388.14-3.94Q387.00-1.92 384.92-0.76Q382.84 0.40 380.16 0.40L380.16 0.40Q377.56 0.40 375.48-0.70Q373.40-1.80 372.22-3.80Q371.04-5.80 371.04-8.44L371.04-8.44ZM374.80-8.40Q374.80-6.84 375.50-5.52Q376.20-4.20 377.42-3.44Q378.64-2.68 380.12-2.68L380.12-2.68Q382.44-2.68 383.96-4.32Q385.48-5.96 385.48-8.40L385.48-8.40Q385.48-10.84 383.96-12.50Q382.44-14.16 380.12-14.16L380.12-14.16Q378.60-14.16 377.40-13.38Q376.20-12.60 375.50-11.28Q374.80-9.96 374.80-8.40L374.80-8.40Z M416.72-17.24Q419.12-17.24 420.54-15.88Q421.96-14.52 422.04-12.28L422.04-12.28L422.04 0L418.32 0L418.32-10.92Q418.20-13.84 415.68-14L415.68-14Q414.24-14 413.10-13.14Q411.96-12.28 411.32-10.88Q410.68-9.48 410.64-7.88L410.64-7.88L410.64 0L406.88 0L406.88-10.92Q406.76-13.84 404.16-14L404.16-14Q402.76-14 401.62-13.14Q400.48-12.28 399.84-10.86Q399.20-9.44 399.20-7.84L399.20-7.84L399.20 0L395.48 0L395.48-16.56L398.84-16.56L399.12-13.44Q400.08-15.24 401.74-16.24Q403.40-17.24 405.52-17.24L405.52-17.24Q407.52-17.24 408.88-16.30Q410.24-15.36 410.64-13.72L410.64-13.72Q411.68-15.36 413.28-16.30Q414.88-17.24 416.72-17.24L416.72-17.24Z M437.44-2.80Q439.52-2.80 441.48-4.24L441.48-4.24L443.20-1.48Q441.88-0.60 440.34-0.10Q438.80 0.40 437.36 0.40L437.36 0.40Q434.60 0.40 432.54-0.74Q430.48-1.88 429.36-3.88Q428.24-5.88 428.24-8.40L428.24-8.40Q428.24-10.84 429.46-12.86Q430.68-14.88 432.80-16.06Q434.92-17.24 437.44-17.24L437.44-17.24Q440.68-17.24 442.86-15.34Q445.04-13.44 445.84-10.04L445.84-10.04L432.72-5.44Q433.44-4.20 434.66-3.50Q435.88-2.80 437.44-2.80L437.44-2.80ZM437.16-14.28Q434.88-14.28 433.40-12.68Q431.92-11.08 431.92-8.60L431.92-8.60Q431.92-8 431.96-7.68L431.96-7.68L441.60-11.24Q441.00-12.60 439.90-13.44Q438.80-14.28 437.16-14.28L437.16-14.28Z M450.60-10.24L458.04-10.24L458.04-6.96L450.60-6.96L450.60-10.24Z M466.40 0L466.40-13.24L463.56-13.24L463.56-16.60L466.40-16.60L466.40-23.56Q466.40-27.16 468.04-29.08Q469.68-31 472.84-31L472.84-31Q473.72-31 474.72-30.74Q475.72-30.48 476.48-30L476.48-30L474.88-27.28Q474.28-27.92 473.20-27.92L473.20-27.92Q471.68-27.92 470.90-26.88Q470.12-25.84 470.12-23.52L470.12-23.52L470.12-16.60L475.40-16.60L475.40-13.24L470.12-13.24L470.12 0L466.40 0Z M479.08-8.44Q479.08-10.88 480.26-12.90Q481.44-14.92 483.54-16.08Q485.64-17.24 488.28-17.24L488.28-17.24Q490.92-17.24 492.98-16.08Q495.04-14.92 496.18-12.92Q497.32-10.92 497.32-8.44L497.32-8.44Q497.32-5.96 496.18-3.94Q495.04-1.92 492.96-0.76Q490.88 0.40 488.20 0.40L488.20 0.40Q485.60 0.40 483.52-0.70Q481.44-1.80 480.26-3.80Q479.08-5.80 479.08-8.44L479.08-8.44ZM482.84-8.40Q482.84-6.84 483.54-5.52Q484.24-4.20 485.46-3.44Q486.68-2.68 488.16-2.68L488.16-2.68Q490.48-2.68 492.00-4.32Q493.52-5.96 493.52-8.40L493.52-8.40Q493.52-10.84 492.00-12.50Q490.48-14.16 488.16-14.16L488.16-14.16Q486.64-14.16 485.44-13.38Q484.24-12.60 483.54-11.28Q482.84-9.96 482.84-8.40L482.84-8.40Z M516.96-1.56Q515.84-0.64 514.30-0.12Q512.76 0.40 511.16 0.40L511.16 0.40Q508.48 0.40 506.42-0.68Q504.36-1.76 503.22-3.74Q502.08-5.72 502.08-8.32L502.08-8.32Q502.08-10.88 503.28-12.86Q504.48-14.84 506.48-15.92Q508.48-17 510.80-17L510.80-17Q514.60-17 517.08-14.92L517.08-14.92L515.20-12.48Q514.40-13.08 513.36-13.50Q512.32-13.92 511.12-13.92L511.12-13.92Q509.64-13.92 508.42-13.18Q507.20-12.44 506.50-11.16Q505.80-9.88 505.80-8.32L505.80-8.32Q505.80-6.76 506.54-5.48Q507.28-4.20 508.56-3.44Q509.84-2.68 511.48-2.68L511.48-2.68Q513.52-2.68 515.04-3.88L515.04-3.88L516.96-1.56Z M534.64-16.56L538.36-16.56L538.36 0L535.00 0L534.76-3.16Q533.92-1.48 532.16-0.42Q530.40 0.64 528.24 0.64L528.24 0.64Q525.96 0.64 524.50-0.74Q523.04-2.12 522.96-4.32L522.96-4.32L522.96-16.56L526.68-16.56L526.68-5.64Q526.76-4.24 527.50-3.42Q528.24-2.60 529.72-2.56L529.72-2.56Q531.08-2.56 532.20-3.38Q533.32-4.20 533.98-5.64Q534.64-7.08 534.64-8.84L534.64-8.84L534.64-16.56Z M550.72 0.36Q548.88 0.36 547.22-0.28Q545.56-0.92 544.52-2.16L544.52-2.16L546.12-4.32Q547.12-3.36 548.22-2.84Q549.32-2.32 550.40-2.32L550.40-2.32Q551.72-2.32 552.56-2.84Q553.40-3.36 553.40-4.44L553.40-4.44Q553.40-5.28 552.88-5.80Q552.36-6.32 551.70-6.56Q551.04-6.80 549.48-7.28L549.48-7.28Q545.24-8.64 545.24-12.12L545.24-12.12Q545.24-14.20 546.78-15.68Q548.32-17.16 551.08-17.16L551.08-17.16Q552.84-17.16 554.20-16.72Q555.56-16.28 556.72-15.32L556.72-15.32L555.24-13.04Q554.60-13.72 553.62-14.12Q552.64-14.52 551.76-14.56L551.76-14.56Q550.64-14.56 549.84-14.02Q549.04-13.48 549.04-12.56L549.04-12.56Q549.04-11.80 549.56-11.30Q550.08-10.80 550.64-10.58Q551.20-10.36 552.84-9.84L552.84-9.84Q554.88-9.16 556.02-8.08Q557.16-7 557.16-5.16L557.16-5.16Q557.16-2.76 555.48-1.20Q553.80 0.36 550.72 0.36L550.72 0.36Z M571.32-2.80Q573.40-2.80 575.36-4.24L575.36-4.24L577.08-1.48Q575.76-0.60 574.22-0.10Q572.68 0.40 571.24 0.40L571.24 0.40Q568.48 0.40 566.42-0.74Q564.36-1.88 563.24-3.88Q562.12-5.88 562.12-8.40L562.12-8.40Q562.12-10.84 563.34-12.86Q564.56-14.88 566.68-16.06Q568.80-17.24 571.32-17.24L571.32-17.24Q574.56-17.24 576.74-15.34Q578.92-13.44 579.72-10.04L579.72-10.04L566.60-5.44Q567.32-4.20 568.54-3.50Q569.76-2.80 571.32-2.80L571.32-2.80ZM571.04-14.28Q568.76-14.28 567.28-12.68Q565.80-11.08 565.80-8.60L565.80-8.60Q565.80-8 565.84-7.68L565.84-7.68L575.48-11.24Q574.88-12.60 573.78-13.44Q572.68-14.28 571.04-14.28L571.04-14.28Z M599.12-31L602.84-31L602.84 0L599.08 0L599.08-2.60Q597.88-1.20 596.14-0.40Q594.40 0.40 592.32 0.40L592.32 0.40Q590 0.40 588.12-0.72Q586.24-1.84 585.18-3.86Q584.12-5.88 584.12-8.52L584.12-8.52Q584.12-11.20 585.24-13.18Q586.36-15.16 588.32-16.20Q590.28-17.24 592.76-17.24L592.76-17.24Q594.64-17.24 596.38-16.46Q598.12-15.68 599.12-14.32L599.12-14.32L599.12-31ZM593.48-2.80Q595.64-2.80 597.14-3.96Q598.64-5.12 599.08-7.08L599.08-7.08L599.08-10.20Q598.60-12 597.04-13.14Q595.48-14.28 593.48-14.28L593.48-14.28Q591.96-14.28 590.68-13.54Q589.40-12.80 588.64-11.50Q587.88-10.20 587.88-8.56L587.88-8.56Q587.88-6.96 588.64-5.64Q589.40-4.32 590.68-3.56Q591.96-2.80 593.48-2.80L593.48-2.80Z M624.32-31L628.04-31L628.04 0L624.32 0L624.32-31Z M643.48-2.80Q645.56-2.80 647.52-4.24L647.52-4.24L649.24-1.48Q647.92-0.60 646.38-0.10Q644.84 0.40 643.40 0.40L643.40 0.40Q640.64 0.40 638.58-0.74Q636.52-1.88 635.40-3.88Q634.28-5.88 634.28-8.40L634.28-8.40Q634.28-10.84 635.50-12.86Q636.72-14.88 638.84-16.06Q640.96-17.24 643.48-17.24L643.48-17.24Q646.72-17.24 648.90-15.34Q651.08-13.44 651.88-10.04L651.88-10.04L638.76-5.44Q639.48-4.20 640.70-3.50Q641.92-2.80 643.48-2.80L643.48-2.80ZM643.20-14.28Q640.92-14.28 639.44-12.68Q637.96-11.08 637.96-8.60L637.96-8.60Q637.96-8 638.00-7.68L638.00-7.68L647.64-11.24Q647.04-12.60 645.94-13.44Q644.84-14.28 643.20-14.28L643.20-14.28Z M671.28-16.56L674.72-16.56L674.72 0L671.00 0L671.00-2.72Q670.12-1.56 668.44-0.58Q666.76 0.40 664.64 0.40L664.64 0.40Q662.28 0.40 660.38-0.62Q658.48-1.64 657.38-3.60Q656.28-5.56 656.28-8.28L656.28-8.28Q656.28-11 657.42-13.02Q658.56-15.04 660.50-16.14Q662.44-17.24 664.80-17.24L664.80-17.24Q666.92-17.24 668.48-16.32Q670.04-15.40 671.00-13.92L671.00-13.92L671.28-16.56ZM665.64-2.68Q667.68-2.68 669.14-3.82Q670.60-4.96 671.00-6.92L671.00-6.92L671.00-10.20Q670.52-11.96 669.00-13.06Q667.48-14.16 665.52-14.16L665.52-14.16Q664.04-14.16 662.78-13.44Q661.52-12.72 660.78-11.42Q660.04-10.12 660.04-8.48L660.04-8.48Q660.04-6.88 660.80-5.56Q661.56-4.24 662.84-3.46Q664.12-2.68 665.64-2.68L665.64-2.68Z M686.00-12.64Q686.64-14 687.82-15.04Q689.00-16.08 690.32-16.64Q691.64-17.20 692.64-17.24L692.64-17.24L692.48-13.52Q690.68-13.60 689.22-12.80Q687.76-12 686.94-10.58Q686.12-9.16 686.12-7.56L686.12-7.56L686.12 0L682.40 0L682.40-16.56L685.72-16.56L686.00-12.64Z M708.92-17.20Q711.24-17.20 712.76-15.82Q714.28-14.44 714.32-12.24L714.32-12.24L714.32 0L710.56 0L710.56-10.96Q710.48-12.36 709.72-13.16Q708.96-13.96 707.44-14L707.44-14Q705.24-14 703.80-12.24Q702.36-10.48 702.36-7.76L702.36-7.76L702.36 0L698.64 0L698.64-16.56L702.00-16.56L702.24-13.36Q703.12-15.16 704.88-16.18Q706.64-17.20 708.92-17.20L708.92-17.20Z M721.96-16.56L725.68-16.56L725.68 0L721.96 0L721.96-16.56ZM721.68-22.52Q721.68-23.40 722.36-24Q723.04-24.60 723.92-24.60L723.92-24.60Q724.80-24.60 725.46-24Q726.12-23.40 726.12-22.52L726.12-22.52Q726.12-21.64 725.46-21.04Q724.80-20.44 723.92-20.44L723.92-20.44Q723.04-20.44 722.36-21.04Q721.68-21.64 721.68-22.52L721.68-22.52Z M743.64-17.20Q745.96-17.20 747.48-15.82Q749.00-14.44 749.04-12.24L749.04-12.24L749.04 0L745.28 0L745.28-10.96Q745.20-12.36 744.44-13.16Q743.68-13.96 742.16-14L742.16-14Q739.96-14 738.52-12.24Q737.08-10.48 737.08-7.76L737.08-7.76L737.08 0L733.36 0L733.36-16.56L736.72-16.56L736.96-13.36Q737.84-15.16 739.60-16.18Q741.36-17.20 743.64-17.20L743.64-17.20Z M770.76-16.56L774.16-16.56L774.16 0.12Q774.16 2.40 773.00 4.24Q771.84 6.08 769.70 7.16Q767.56 8.24 764.68 8.24L764.68 8.24Q762.16 8.24 760.34 7.40Q758.52 6.56 756.68 4.92L756.68 4.92L758.88 2.36Q760.24 3.64 761.60 4.30Q762.96 4.96 764.60 4.96L764.60 4.96Q767.36 4.96 768.86 3.64Q770.36 2.32 770.40 0.08L770.40 0.08L770.44-3.04Q769.52-1.48 767.74-0.54Q765.96 0.40 763.64 0.40L763.64 0.40Q761.36 0.40 759.44-0.76Q757.52-1.92 756.38-3.92Q755.24-5.92 755.24-8.36L755.24-8.36Q755.24-10.88 756.42-12.90Q757.60-14.92 759.60-16.08Q761.60-17.24 763.88-17.24L763.88-17.24Q766.00-17.24 767.80-16.40Q769.60-15.56 770.48-14.24L770.48-14.24L770.76-16.56ZM764.72-2.68Q766.84-2.68 768.40-3.84Q769.96-5 770.44-6.88L770.44-6.88L770.44-10.16Q769.88-11.96 768.32-13.06Q766.76-14.16 764.72-14.16L764.72-14.16Q762.28-14.16 760.64-12.56Q759.00-10.96 759.00-8.48L759.00-8.48Q759.00-6.88 759.76-5.56Q760.52-4.24 761.84-3.46Q763.16-2.68 764.72-2.68L764.72-2.68Z"/></g>
</svg>
</g><g opacity="1" transform="rotate(0 922.7177 471.0121)">
<svg width="316.5646" height="34.4753" x="922.7177" y="471.0121" version="1.1" preserveAspectRatio="none" viewBox="2.48 -26.8 249.76000000000002 27.2">
  <g transform="matrix(1 0 0 1 0 0)" class="aD6z1nYkhcolor"><path id="id-D6z1nYkh10" d="M25.04-6.68Q23.92-3.32 21.14-1.46Q18.36 0.40 14.48 0.40L14.48 0.40Q10.88 0.40 8.16-1.26Q5.44-2.92 3.96-6Q2.48-9.08 2.48-13.20L2.48-13.20Q2.48-17.32 3.96-20.40Q5.44-23.48 8.16-25.14Q10.88-26.80 14.44-26.80L14.44-26.80Q22.36-26.80 24.68-20.28L24.68-20.28L22.72-19.36Q21.80-22.16 19.78-23.56Q17.76-24.96 14.56-24.96L14.56-24.96Q11.60-24.96 9.34-23.54Q7.08-22.12 5.84-19.46Q4.60-16.80 4.60-13.20L4.60-13.20Q4.60-9.60 5.82-6.94Q7.04-4.28 9.26-2.86Q11.48-1.44 14.48-1.44L14.48-1.44Q17.68-1.44 19.92-3Q22.16-4.56 23.04-7.44L23.04-7.44L25.04-6.68Z M32.92-1.84L48.76-1.84L48.76 0L30.92 0L30.92-26.40L32.92-26.40L32.92-1.84Z M55.80-1.84L72.48-1.84L72.48 0L53.80 0L53.80-26.40L71.84-26.40L71.84-24.56L55.80-24.56L55.80-14.36L68.48-14.36L68.48-12.48L55.80-12.48L55.80-1.84Z M96.24 0L92.92-8.28L80.28-8.28L77 0L74.88 0L85.44-26.40L87.80-26.40L98.36 0L96.24 0ZM81.04-10.12L92.20-10.12L87.60-21.64L86.64-24.44L86.60-24.44L85.64-21.72L81.04-10.12Z M123.56-26.40L123.56 0L121.08 0L107.08-20.72L105.12-24.24L105.08-24.24L105.20-20.92L105.20 0L103.28 0L103.28-26.40L105.80-26.40L119.76-5.72L121.76-2.16L121.68-5.48L121.68-26.40L123.56-26.40Z M140.04-26.80Q147.48-26.80 150-20.96L150-20.96L148.28-19.56Q147.28-22.40 145.30-23.68Q143.32-24.96 140.08-24.96L140.08-24.96Q137.76-24.96 136.04-24.24Q134.32-23.52 133.42-22.28Q132.52-21.04 132.52-19.48L132.52-19.48Q132.52-17.96 133.28-16.96Q134.04-15.96 135.86-15.26Q137.68-14.56 140.88-14L140.88-14Q146.04-13.12 148.20-11.44Q150.36-9.76 150.36-6.80L150.36-6.80Q150.36-4.68 149.12-3.04Q147.88-1.40 145.62-0.50Q143.36 0.40 140.44 0.40L140.44 0.40Q136.28 0.40 133.42-1.26Q130.56-2.92 129.52-5.92L129.52-5.92L131.28-7.28Q132.08-4.44 134.50-2.94Q136.92-1.44 140.48-1.44L140.48-1.44Q143.92-1.44 146.10-2.84Q148.28-4.24 148.28-6.68L148.28-6.68Q148.28-8.80 146.50-10.04Q144.72-11.28 140.32-12.04L140.32-12.04Q136.60-12.68 134.44-13.60Q132.28-14.52 131.34-15.88Q130.40-17.24 130.40-19.28L130.40-19.28Q130.40-21.32 131.58-23.04Q132.76-24.76 134.94-25.78Q137.12-26.80 140.04-26.80L140.04-26.80Z M174.96-26.40L176.96-26.40L176.96 0L174.96 0L174.96-12.48L158.64-12.48L158.64 0L156.64 0L156.64-26.40L158.64-26.40L158.64-14.36L174.96-14.36L174.96-26.40Z M187.28-1.84L203.96-1.84L203.96 0L185.28 0L185.28-26.40L203.32-26.40L203.32-24.56L187.28-24.56L187.28-14.36L199.96-14.36L199.96-12.48L187.28-12.48L187.28-1.84Z M211.76-1.84L228.44-1.84L228.44 0L209.76 0L209.76-26.40L227.80-26.40L227.80-24.56L211.76-24.56L211.76-14.36L224.44-14.36L224.44-12.48L211.76-12.48L211.76-1.84Z M252.24-26.40L252.24-24.56L242.60-24.56L242.60 0L240.60 0L240.60-24.56L230.96-24.56L230.96-26.40L252.24-26.40Z"/></g>
</svg>
</g><g opacity="1" transform="rotate(0 891 521.0013)">
<svg width="380" height="2.5856" x="891" y="521.0013" version="1.1" preserveAspectRatio="none" viewBox="0 0 380 2.5856">
  <defs><rect x="0" y="0" width="380" height="2.5856" rx="0px" ry="0px" id="id-tBXipXk0b"></rect></defs><use class="atBXipXk0bfillColor atBXipXk0bstrokeColor-str" style="stroke-width:0;" xlink:href="#id-tBXipXk0b"></use>
</svg>
</g></svg>